<svg width="45" height="43" viewBox="0 0 45 43" fill="none" xmlns="http://www.w3.org/2000/svg">
<path fill-rule="evenodd" clip-rule="evenodd" d="M19.2933 0.114238C12.1734 0.670133 5.89823 5.0391 2.85808 11.5568C1.34404 14.8027 0.669237 18.5161 0.98225 21.8787C1.05435 22.653 1.0663 22.6784 1.23642 22.4192C1.75069 21.636 2.37151 20.8875 2.55619 20.8281C2.73543 20.7703 2.7745 20.5532 2.83262 19.2919C2.95302 16.6825 3.51926 14.4896 4.70076 12.0569C5.91528 9.55641 8.09856 6.94461 10.2602 5.40641C11.125 4.79106 11.1471 4.76247 11.2232 4.16646C11.3062 3.51579 11.5509 3.09551 12.0795 2.696C12.3718 2.47499 12.5763 2.44833 13.9776 2.44833C15.7319 2.44833 15.9766 2.36388 15.8648 1.79682C15.7896 1.41533 16.0599 1.067 16.431 1.067C16.5616 1.067 16.8376 1.24056 17.0442 1.45281C17.3974 1.81556 17.4764 1.84042 18.3669 1.87045C18.8878 1.88811 19.7668 1.9012 20.3203 1.89976C25.241 1.88678 29.7669 3.67843 33.1871 6.99326C33.7895 7.57714 34.5632 8.42852 34.9064 8.88508C35.2496 9.34176 35.5576 9.714 35.5909 9.71244C35.6839 9.70811 36.6578 8.22649 36.6558 8.09232C36.6528 7.88524 34.8573 5.89949 33.9347 5.08282C31.3154 2.76423 27.8464 1.03264 24.5822 0.414407C23.7535 0.257536 20.7685 -0.0455155 20.557 0.00577392C20.5245 0.0137015 19.9558 0.0624685 19.2933 0.114238ZM16.5357 2.05182C16.533 2.28185 16.4054 2.47379 16.0964 2.71246C15.6656 3.0453 15.645 3.04854 14.1572 3.01455C12.688 2.98104 12.6451 2.9874 12.2882 3.29202C11.6625 3.82617 11.6799 4.93604 12.3291 5.89516L12.5977 6.29203L12.2725 6.95266C11.8222 7.86746 11.765 8.3412 12.026 8.99463L12.2418 9.53515L11.8718 10.0583C11.5621 10.496 11.5076 10.6726 11.5381 11.1393C11.5582 11.4462 11.5861 12.6431 11.6001 13.7993C11.6293 16.1975 11.7206 16.8727 12.0393 17.0456C12.1611 17.1118 12.5663 17.2364 12.9397 17.3224C13.5333 17.4592 13.6301 17.5224 13.7099 17.8252C13.8213 18.248 13.7804 18.3007 13.4712 18.1328C13.2642 18.0205 13.1184 18.1016 12.4073 18.724L11.5833 19.4454L10.774 19.077L9.96468 18.7085L6.31495 20.0676L2.66523 21.4266L2.20814 22.0404C1.5936 22.8655 0.602704 24.6343 0.298452 25.449C-0.13496 26.6098 -0.121819 26.8181 0.506693 28.7543L1.08252 30.5281L2.15119 31.5027C2.73886 32.0387 3.42467 32.657 3.67506 32.8769L4.13025 33.2764L3.76065 33.6633C3.44504 33.9936 3.39105 34.1396 3.39105 34.6619V35.2735L4.09296 35.7346C4.72645 36.1508 4.78848 36.2282 4.72941 36.5284C4.6933 36.7112 4.72692 36.938 4.80399 37.0321C4.91373 37.1664 4.89562 37.303 4.71994 37.6631C4.51773 38.0779 4.51146 38.1766 4.65589 38.6759C4.78931 39.1374 4.89171 39.2639 5.27327 39.4385C5.64998 39.6108 5.77854 39.6218 6.00182 39.5006C6.23173 39.3757 6.2966 39.3865 6.43014 39.5719C6.51668 39.6919 6.58748 39.8556 6.58748 39.9355C6.58748 40.0155 6.77761 40.1947 7.01 40.3338C7.41334 40.5752 7.49301 40.5805 8.75619 40.4491L10.0799 40.3113L10.5288 40.7452C10.7757 40.9838 11.2019 41.2436 11.4759 41.3226C11.7498 41.4016 12.1072 41.5893 12.27 41.7399C12.7763 42.2083 13.3722 42.3868 14.4268 42.3861C15.6748 42.3852 16.114 42.2572 17.048 41.6218C17.4638 41.3388 17.984 41.034 18.2039 40.9444C18.4237 40.8549 20.3973 40.0136 22.5896 39.0749L26.5754 37.3683L27.6802 37.9445C29.166 38.7194 30.0514 38.9949 31.78 39.2199L33.2363 39.4096L34.1923 38.8262C35.3129 38.1422 35.5313 37.8691 35.4358 37.2715C35.3774 36.9065 35.4422 36.735 35.8888 36.0733C36.4629 35.2224 36.6056 34.7129 36.4964 33.9046L36.424 33.3681L36.9551 33.1371C37.2472 33.0101 37.486 32.8638 37.4857 32.8119C37.4854 32.7599 37.3535 32.3932 37.1925 31.9968C37.0317 31.6004 36.8987 31.0979 36.8972 30.8803C36.8936 30.3828 36.4999 29.9644 35.8491 29.7666C35.3867 29.6261 35.3655 29.5978 35.3315 29.079C35.2968 28.5483 35.2116 28.4362 34.7263 28.2827C34.6082 28.2453 34.5433 28.1628 34.582 28.0991C34.6226 28.0325 34.7621 28.0245 34.9111 28.0805C35.1899 28.1851 35.0972 28.2875 36.3363 26.5088L36.896 25.7054L36.392 25.3988C36.0689 25.2023 35.9669 25.092 36.1079 25.0912C36.2601 25.0905 36.3055 25.0313 36.2554 24.8988C36.2156 24.7936 36.1522 24.583 36.1145 24.4308C36.0475 24.1598 36.0575 24.1566 36.5969 24.2733C36.8999 24.3389 37.1713 24.3686 37.2002 24.3394C37.229 24.3101 37.1689 24.0828 37.0666 23.8343C36.9642 23.5859 36.9076 23.3551 36.9407 23.3214C36.9739 23.2878 37.238 23.2331 37.5277 23.2L38.0544 23.1398L37.8886 22.7374C37.6471 22.1508 37.6753 22.0872 38.1768 22.0872C38.4265 22.0872 38.6621 22.0553 38.7005 22.0164C38.739 21.9773 38.6946 21.7272 38.6019 21.4607C38.5092 21.1941 38.4333 20.9591 38.4333 20.9384C38.4333 20.9177 38.6688 20.8649 38.9567 20.8212L39.4801 20.7416L39.2648 20.2319L39.0495 19.7224L39.3453 19.3391C39.5594 19.0613 39.7037 18.9759 39.8688 19.0291C40.102 19.1042 40.7325 18.5717 41.0059 18.0689C41.1143 17.8694 41.1773 17.8544 41.4256 17.9692C41.6828 18.0881 41.7451 18.0659 41.9476 17.7835C42.3725 17.1911 42.3722 17.1741 41.932 16.9612C41.7007 16.8492 41.5114 16.7082 41.5114 16.6478C41.5114 16.5875 42.0683 15.7084 42.749 14.6944C44.4153 12.2118 44.5215 11.9927 44.5215 11.0366C44.5215 10.1252 44.25 9.49839 43.5545 8.80436C42.2076 7.46003 39.6854 7.29175 38.3442 8.45663C37.9399 8.80773 37.8686 8.83139 37.6667 8.68161C37.2965 8.4069 37.1745 8.47777 36.6127 9.29312L36.076 10.0721L38.3829 11.4607C39.9351 12.3951 40.6617 12.8968 40.6041 12.9941C40.557 13.0735 40.1767 13.6409 39.759 14.255C39.0382 15.3149 38.9869 15.3632 38.7461 15.2081C37.9522 14.6968 34.2762 12.5742 34.2509 12.6125C34.2343 12.6376 34.0753 12.8885 33.8976 13.1701L33.5743 13.6819L33.8729 13.8199C34.0371 13.8958 34.1714 14.0049 34.1714 14.0622C34.1714 14.1195 34.0075 14.4959 33.8072 14.8987C33.4003 15.7164 33.4118 15.9809 33.8787 16.5438L34.1778 16.9046L32.5633 19.6132L30.9486 22.3219L30.4237 22.0098C30.1351 21.8381 29.8808 21.7178 29.8588 21.7424C29.8367 21.7669 29.5932 22.2464 29.3176 22.8079C29.042 23.3695 28.7942 23.8533 28.7671 23.8831C28.7399 23.9129 28.0667 23.2835 27.2714 22.4843L25.8252 21.0315L24.4046 20.9512L22.984 20.8708L22.5336 20.4198L22.0833 19.9688L22.3483 19.0761C22.574 18.3158 22.6145 17.8924 22.6211 16.2199L22.6288 14.2564L23.0681 13.8176C23.5482 13.338 23.7651 12.8172 24.1153 11.3022C24.3687 10.2058 24.4087 9.52902 24.227 9.41503C24.1619 9.37419 24.1081 9.19534 24.1074 9.01757C24.1058 8.5335 23.6002 7.52573 23.1785 7.16575C22.766 6.81357 22.7216 6.71243 22.9798 6.71243C23.397 6.71243 23.5601 5.57554 23.1911 5.24005C23.0771 5.13651 22.6879 4.91946 22.326 4.75779C21.9641 4.59611 21.4158 4.26856 21.1075 4.02977C20.4332 3.50763 19.574 3.22908 18.6372 3.22908C17.9937 3.22908 17.9528 3.21286 18.0643 3.00146C18.1302 2.8763 18.3586 2.70321 18.5716 2.61697L18.9588 2.45998L18.4668 2.41782C18.1944 2.39439 17.7786 2.45878 17.5349 2.56208C16.9538 2.80843 16.8871 2.79906 16.8871 2.47127C16.8871 2.31872 16.8088 2.08906 16.7133 1.96078C16.5465 1.73712 16.5392 1.74084 16.5357 2.05182ZM18.8723 3.83866C19.3539 3.97584 19.8234 4.0586 19.9156 4.02268C20.1393 3.9356 20.1279 4.06136 19.8876 4.33066C19.631 4.61833 19.1645 4.60849 18.3978 4.29895C18.0552 4.16081 17.4553 4.00803 17.0646 3.9595C16.4154 3.87902 16.3798 3.85992 16.6503 3.73801C17.1116 3.53009 17.9163 3.5666 18.8723 3.83866ZM18.4853 4.56224C19.2665 4.89928 19.5807 4.97075 20.2794 4.97075C21.1728 4.97075 21.2572 5.06709 20.6056 5.34335C20.0295 5.58755 19.4753 5.55139 18.3519 5.19597C17.0887 4.79635 16.2707 4.83574 15.8639 5.31573C15.545 5.69181 15.3985 5.71115 15.2338 5.39909C15.0349 5.02204 15.0897 4.79394 15.4725 4.40561C15.8223 4.05067 15.8608 4.04094 16.6859 4.09643C17.2977 4.13763 17.8054 4.26904 18.4853 4.56224ZM15.3713 6.48217C16.1712 7.31853 17.2241 7.69269 18.0709 7.44153C18.3668 7.35373 18.3668 7.35373 18.0033 7.26845C17.5657 7.16587 16.7687 6.52541 16.7687 6.27617C16.7687 6.17419 16.826 6.13359 16.9023 6.18152C16.9759 6.22764 17.6063 6.25647 18.3032 6.24554C19.428 6.228 19.6058 6.25407 19.8861 6.47784C20.2933 6.80276 20.2844 7.05452 19.8462 7.6139C19.4398 8.13268 19.494 8.29147 20.1757 8.58047C20.4597 8.70083 20.5611 8.80773 20.5107 8.93397C20.4711 9.03343 20.4072 9.19354 20.3687 9.28987C20.3214 9.40819 20.3983 9.49035 20.6055 9.5432C20.9664 9.63508 21.0161 10.0004 20.7138 10.3393C20.4581 10.6259 20.6403 10.8296 21.1041 10.7757C21.3714 10.7446 21.4941 10.627 21.6837 10.2196C21.9489 9.6501 22.1434 9.47965 22.5316 9.47689C23.6682 9.46884 23.1518 12.0418 21.9265 12.4914C21.5825 12.6176 21.4825 12.7466 21.2698 13.3385C21.1318 13.7225 20.8348 14.2814 20.6097 14.5805L20.2006 15.1242L20.6409 14.9377C20.883 14.835 21.1672 14.672 21.2723 14.5754C21.5499 14.3206 21.5807 14.3447 21.7268 14.9335C22.0378 16.1866 21.8519 17.8362 21.101 20.4866C20.866 21.3161 20.7597 21.8845 20.8267 21.9525C20.8869 22.0135 20.9 22.2303 20.856 22.434C20.7782 22.793 20.7658 22.7993 20.4593 22.636C19.8062 22.2881 18.8996 21.0964 18.8996 20.5858C18.8996 20.4802 19.0848 20.2002 19.3111 19.9637C19.6918 19.5661 20.0855 18.728 20.2722 17.9181C20.3465 17.5957 20.3364 17.6 20.0093 18.0268C19.8222 18.271 19.5254 18.5836 19.3497 18.7214C18.9248 19.0546 17.8756 19.5302 17.3606 19.6229C16.9637 19.6945 16.9343 19.6746 16.6623 19.1486C16.4873 18.81 16.2735 18.5728 16.1048 18.5299C15.6909 18.4244 15.5482 18.1788 15.6335 17.7179C15.701 17.3526 15.7662 17.295 16.2531 17.1707C16.5524 17.0941 17.1238 16.8782 17.5229 16.6907C18.7258 16.1255 19.3156 15.577 19.6851 14.6798L19.8724 14.2251L19.3338 14.7288C18.7422 15.2821 18.368 15.4271 17.8189 15.3156C17.4943 15.2498 17.3854 15.3162 16.7585 15.9622C15.8817 16.8656 15.4913 16.9212 14.756 16.2472C14.3111 15.8394 14.2597 15.8216 13.9268 15.9616C13.416 16.1762 13.2171 15.9691 13.2171 15.2226V14.6333L13.9608 14.7107C14.5654 14.7735 14.7341 14.7517 14.8631 14.5939C15.0034 14.4224 14.9798 14.3998 14.6592 14.3998C14.4598 14.3998 14.2667 14.3508 14.2302 14.291C14.1938 14.2312 14.0649 14.2085 13.9436 14.2406C13.6898 14.3079 13.5294 14.0055 13.6368 13.6622C13.6921 13.4855 13.8224 13.4397 14.2609 13.4431C14.5659 13.4455 14.9485 13.5247 15.1113 13.6191C15.2741 13.7135 15.5346 13.7926 15.6903 13.795C15.9426 13.7988 15.9169 13.7531 15.4535 13.3744C15.0721 13.0626 14.8456 12.9613 14.6029 12.994C14.2271 13.0446 14.1177 12.9359 14.219 12.6122C14.2776 12.4246 14.3752 12.398 14.8163 12.4484C15.1971 12.4919 15.4313 12.4504 15.6598 12.2984C15.9684 12.0933 15.9814 12.0951 16.1923 12.3731C16.3485 12.5794 16.409 12.6063 16.4109 12.4704C16.4123 12.3671 16.2512 12.1248 16.0528 11.9321C15.7564 11.6439 15.673 11.6124 15.5857 11.7558C15.4941 11.9061 15.4171 11.9076 15.032 11.7663C14.786 11.676 14.4367 11.6064 14.2561 11.6116C13.8129 11.6244 13.8339 11.4091 14.3497 10.6481C14.582 10.3056 14.8017 9.87448 14.838 9.69022C14.8881 9.43617 14.9723 9.35497 15.1853 9.35497C15.428 9.35497 15.4664 9.41275 15.4664 9.77754V10.2002L16.088 10.191C16.4297 10.1859 17.1223 10.1984 17.6269 10.2187C18.2503 10.244 18.5444 10.2125 18.5444 10.1204C18.5446 9.87147 18.2545 9.74283 17.4963 9.65538C16.8694 9.58319 16.7708 9.54224 16.9044 9.40963C17.0246 9.29011 17.2419 9.27414 17.775 9.34549C18.1656 9.39786 18.5785 9.48122 18.6925 9.53082C19.0025 9.66571 18.9424 9.44086 18.5741 9.08808C18.2182 8.74707 17.4385 8.63176 16.6427 8.80244C16.311 8.87355 16.1264 8.83632 15.7786 8.62803L15.3363 8.3633L15.0682 8.61891C14.7545 8.91799 14.1883 8.95787 14.0863 8.68821C14.0475 8.58539 14.121 8.3836 14.2507 8.23778C14.4502 8.0134 14.4771 7.85209 14.4296 7.16539C14.3988 6.72084 14.4047 6.27497 14.4428 6.17443C14.5603 5.86393 14.882 5.97048 15.3713 6.48217ZM22.4512 7.30916C22.4512 7.37307 22.3135 7.49871 22.1452 7.58807L21.8392 7.75083L22.1452 8.11983C22.3135 8.3227 22.4512 8.53855 22.4512 8.59945C22.4512 8.66035 22.2491 8.82539 22.0022 8.96628L21.5531 9.22225L21.6007 8.80821C21.6458 8.41603 21.6293 8.39405 21.2872 8.39405C20.9124 8.39405 20.7009 8.22625 20.9103 8.09496C21.1155 7.96632 21.0436 7.82278 20.7346 7.7441C20.3668 7.65053 20.3537 7.46003 20.705 7.31673C21.0654 7.16983 22.4512 7.16382 22.4512 7.30916ZM13.3051 8.2427C13.4629 8.4839 13.4533 8.49831 13.1377 8.49254C12.9535 8.48906 12.7495 8.49903 12.6844 8.51453C12.1906 8.63188 12.1134 8.23165 12.5956 8.05376C13.0065 7.90206 13.0981 7.92656 13.3051 8.2427ZM42.4016 8.62647C43.7319 9.29095 44.2811 10.2522 43.9697 11.3711C43.8829 11.6826 43.7605 11.9375 43.6976 11.9375C43.6346 11.9375 42.4495 11.292 41.0639 10.503C38.5765 9.08688 38.5475 9.06574 38.7726 8.83728C38.8981 8.70995 39.286 8.50251 39.6345 8.37639C40.512 8.05881 41.4316 8.14193 42.4016 8.62647ZM40.4459 10.8973C41.976 11.8525 43.2398 12.6424 43.2541 12.6526C43.3143 12.6953 42.7458 13.4349 42.6514 13.4369C42.5705 13.4384 36.9579 10.0394 36.7936 9.88925C36.6907 9.7952 37.4076 9.00508 37.529 9.07859C37.6032 9.12351 38.9158 9.94186 40.4459 10.8973ZM13.1791 10.2199C13.3954 10.2992 13.5699 10.3939 13.5669 10.4301C13.5641 10.4664 13.3244 10.7649 13.0342 11.0934L12.5068 11.6906V10.8832C12.5068 10.006 12.5311 9.9821 13.1791 10.2199ZM22.1555 10.2728C21.9612 10.4698 21.9636 10.4855 22.2009 10.5745C22.5095 10.6904 22.5187 10.8367 22.2309 11.052C22.0725 11.1704 22.0321 11.3001 22.0872 11.5127C22.1629 11.8049 22.1672 11.8031 22.4337 11.3657C22.8779 10.6364 22.656 9.76493 22.1555 10.2728ZM36.9732 12.2099C37.3193 12.9189 37.6031 13.5677 37.6037 13.6518C37.6046 13.7963 38.6102 14.5199 38.81 14.5199C38.8614 14.5199 39.0455 14.3023 39.219 14.0364C39.505 13.5978 39.5219 13.511 39.3998 13.1055C39.2855 12.7249 39.1292 12.5774 38.3537 12.1176C37.8522 11.8203 37.1949 11.4295 36.8928 11.249L36.3436 10.9208L36.9732 12.2099ZM18.9163 11.3996C18.6324 11.5303 18.2463 11.6372 18.058 11.6372C17.7921 11.6372 17.7158 11.6921 17.7158 11.8828C17.7158 12.0179 17.5774 12.269 17.4082 12.4406L17.1006 12.7527L17.5858 12.674C18.0207 12.6034 18.0709 12.6207 18.0709 12.8407C18.0709 12.9757 17.9937 13.2737 17.8994 13.5028C17.6835 14.0272 17.8192 14.0308 18.3585 13.5148C18.6735 13.2133 18.7812 13.0115 18.7812 12.7225C18.7812 12.2337 19.0461 11.774 19.5276 11.427C19.8338 11.2063 19.8595 11.1572 19.6675 11.1594C19.5382 11.1608 19.2001 11.2689 18.9163 11.3996ZM38.1374 15.245C40.0256 16.3238 41.5851 17.2159 41.603 17.2274C41.6983 17.2887 41.4605 17.6492 41.3447 17.6188C41.2693 17.5991 39.6518 16.6998 37.7503 15.6203C34.5948 13.8293 34.3034 13.6375 34.4156 13.4249C34.4832 13.2968 34.5757 13.2125 34.6213 13.2377C34.6669 13.2628 36.2491 14.1661 38.1374 15.245ZM41.6907 13.6905C42.0479 13.8951 42.3401 14.1094 42.3401 14.1669C42.3401 14.2888 41.0614 16.3217 40.9847 16.3217C40.9321 16.3217 40.2508 15.9408 39.7635 15.6391L39.4955 15.4731L40.2312 14.396C40.6358 13.8035 40.9836 13.3188 41.0041 13.3188C41.0247 13.3188 41.3336 13.4861 41.6907 13.6905ZM16.6167 14.042C16.6658 14.2328 16.7142 14.2553 16.8423 14.1475C17.0725 13.9536 17.0448 13.7993 16.7798 13.7993C16.6116 13.7993 16.57 13.8611 16.6167 14.042ZM12.7046 14.9704C12.7019 15.1521 12.7401 15.442 12.7896 15.6147C12.8654 15.8791 12.8367 15.94 12.6086 16.0005C12.268 16.0909 12.1259 15.8877 12.209 15.4287C12.2597 15.1484 12.567 14.6401 12.6857 14.6401C12.6988 14.6401 12.7073 14.7886 12.7046 14.9704ZM37.3911 16.0448C38.8108 16.8175 39.9724 17.4856 39.9724 17.5297C39.9724 17.5736 39.7361 17.867 39.4473 18.1817C38.9492 18.7244 38.8992 18.7493 38.4706 18.6681C37.5012 18.4845 34.4815 16.6528 34.2853 16.1296C34.1369 15.7332 34.4719 14.6401 34.7418 14.6401C34.7792 14.6401 35.9713 15.2722 37.3911 16.0448ZM36.0279 19.0972C36.6998 19.5007 37.2495 19.8626 37.2495 19.9014C37.2495 20.0181 34.8605 24.2493 34.7946 24.2493C34.761 24.2493 34.1252 23.9201 33.3816 23.5176C32.4365 23.0061 32.0614 22.744 32.1356 22.6467C32.1938 22.5702 32.7837 21.5753 33.4464 20.4356C34.1091 19.296 34.6862 18.3636 34.7288 18.3636C34.7714 18.3636 35.356 18.6937 36.0279 19.0972ZM17.2212 21.1889C17.2421 21.208 17.1755 21.4739 17.0732 21.7797C16.9708 22.0856 16.8871 22.6042 16.8871 22.9322C16.8871 23.2603 16.8471 23.5255 16.7983 23.5217C16.7495 23.5179 16.4431 23.1615 16.1176 22.7297C15.385 21.758 14.6065 21.0337 13.4539 20.2514C12.9655 19.92 12.5428 19.6289 12.5145 19.6046C12.4862 19.5803 12.6651 19.3504 12.9121 19.0937L13.3613 18.6269L15.2722 19.8906C16.3232 20.5854 17.2002 21.1698 17.2212 21.1889ZM33.9347 18.8332C33.9347 18.9278 32.4307 21.666 31.968 22.4137C31.8068 22.6742 31.4486 22.6782 31.4486 22.4195C31.4486 22.1724 33.6187 18.724 33.7741 18.724C33.8625 18.724 33.9347 18.7731 33.9347 18.8332ZM40.1135 19.6085C39.7017 19.7452 39.6989 19.7652 39.986 20.4897C40.12 20.8282 40.1121 20.9034 39.9185 21.1203C39.7977 21.2557 39.5981 21.3665 39.4751 21.3665C39.2834 21.3665 39.2625 21.4268 39.3293 21.7883C39.4169 22.2622 39.2457 22.5677 38.8924 22.5677C38.7701 22.5677 38.6656 22.6353 38.6603 22.7178C38.6189 23.3484 38.0646 25.4997 37.6686 26.5673C37.5033 27.0127 37.15 27.8171 36.8837 28.3549C36.4337 29.2628 36.4144 29.341 36.6132 29.4539C37.0602 29.7077 37.3653 30.1362 37.441 30.6168L37.5195 31.1149L37.9918 30.2946C39.1657 28.2555 40.0053 25.8586 40.4006 23.4178C40.6127 22.1079 40.7555 19.4389 40.6121 19.4616C40.5533 19.4709 40.3288 19.5369 40.1135 19.6085ZM10.9678 19.9252C11.4975 20.1233 12.0435 20.2855 12.1811 20.2855C12.5243 20.2855 14.0111 21.4634 14.9062 22.4442C15.3124 22.8894 16.0174 23.7447 16.4731 24.3452C16.9286 24.9455 17.3307 25.4399 17.3665 25.4436C17.4023 25.4473 17.4979 24.8444 17.5792 24.1036C17.6604 23.3629 17.7494 22.7337 17.7771 22.7056C17.8049 22.6775 18.4731 23.1891 19.262 23.8422C20.0509 24.4956 20.7964 25.1111 20.9186 25.2102C21.0747 25.337 21.2008 25.7373 21.3436 26.5601C21.4552 27.2033 21.5149 27.7617 21.4762 27.801C21.4376 27.8402 20.589 27.687 19.5904 27.4606L17.775 27.049L16.7687 27.3292C15.4941 27.6843 15.4397 27.6823 15.2016 27.2733C15.022 26.9648 13.9317 25.8329 13.0395 25.0287C12.7795 24.7945 12.7478 24.7303 12.9211 24.7891C13.0514 24.8334 13.4509 24.8912 13.809 24.9174L14.4602 24.9652L13.6315 24.747C13.1757 24.6268 12.2923 24.2496 11.6683 23.9085C11.0442 23.5674 10.4927 23.2884 10.4425 23.2884C10.3923 23.2884 10.5166 23.4795 10.7187 23.713C11.1265 24.1842 11.1815 24.5 10.8973 24.7393C10.7396 24.872 10.6152 24.8645 10.1415 24.6939C9.82972 24.5814 9.31533 24.4939 8.99853 24.499L8.42246 24.5086L9.14829 24.6689C9.5476 24.7569 10.0399 24.916 10.2424 25.0221C10.7289 25.2774 12.4931 26.7943 13.4377 27.7695L14.1908 28.5472L13.353 28.6906C12.5849 28.822 12.3054 28.9667 9.99522 30.4285C7.8123 31.8099 7.32857 32.066 6.37782 32.3431C5.11878 32.7103 5.00406 32.6847 4.45392 31.9139C4.0597 31.3618 3.84092 30.693 3.93279 30.3214C3.96665 30.1846 4.14612 29.9844 4.33163 29.8763C4.74941 29.633 4.8723 29.1371 4.66808 28.518C4.45286 27.8652 3.99991 27.5653 3.11616 27.4906L2.38477 27.4288L2.97587 27.0366C3.48564 26.6984 4.09888 25.9475 4.10078 25.6591C4.10113 25.6088 3.72301 25.7608 3.26059 25.9972C2.79806 26.2335 2.40229 26.4091 2.3811 26.3876C2.30415 26.3097 3.23218 25.081 4.07177 24.1491L4.93007 23.1966L3.9116 22.8745C3.35151 22.6972 2.9168 22.5284 2.94557 22.4991C2.98534 22.4588 9.88039 19.5877 9.98303 19.5688C9.99487 19.5666 10.438 19.727 10.9678 19.9252ZM38.7262 20.0393C38.8256 20.2342 38.9069 20.4245 38.9069 20.4619C38.9069 20.5213 38.3144 20.4194 38.2218 20.3442C38.1815 20.3116 38.4542 19.6849 38.5085 19.6849C38.5289 19.6849 38.6269 19.8444 38.7262 20.0393ZM23.5894 22.6524L24.0397 23.019L23.3353 23.4762C22.9478 23.7277 22.3507 24.2317 22.0082 24.5961C21.4795 25.1589 21.3857 25.2183 21.3857 24.9901C21.3857 24.8422 21.3058 24.5975 21.208 24.4462C21.0461 24.1953 21.056 24.1071 21.3215 23.4443C21.4815 23.0447 21.6995 22.3461 21.8058 21.8919C21.9121 21.4378 22.0229 20.9889 22.0521 20.8942C22.0847 20.7887 22.3047 21.0238 22.622 21.5041C22.9064 21.934 23.3416 22.4508 23.5894 22.6524ZM38.2014 21.5015C38.2883 21.6617 38.2295 21.7096 37.8734 21.7682C37.6347 21.8075 37.4211 21.8209 37.3986 21.7981C37.3762 21.7753 37.4514 21.5573 37.5659 21.3136C37.7591 20.9027 37.7858 20.8863 37.9348 21.0885C38.0233 21.2083 38.1432 21.3943 38.2014 21.5015ZM26.5224 23.0518C27.0886 23.7804 27.5776 24.4441 27.6088 24.5268C27.643 24.6173 27.4032 24.8076 27.0048 25.0058C26.2429 25.385 26.0341 25.7522 25.9049 26.9403L25.8252 27.6726L25.2245 27.7082L24.6238 27.7437L24.2774 26.8674L23.931 25.991L23.8959 26.9516C23.8766 27.4798 23.8157 27.9578 23.7607 28.0136C23.7056 28.0695 23.2819 27.9915 22.8192 27.8403L21.9777 27.5652V26.7178V25.8705L22.8235 25.1943L23.6693 24.5181L24.037 24.7354C24.4402 24.9736 25.6476 25.2341 25.6476 25.0828C25.6476 25.0308 25.5384 24.5066 25.4048 23.918C25.1685 22.8769 25.146 22.8356 24.5745 22.3933C24.2513 22.1432 23.9579 21.8911 23.9224 21.8328C23.8869 21.7746 24.2257 21.7269 24.6753 21.7269H25.4929L26.5224 23.0518ZM37.2561 22.3575C37.5702 22.7395 37.5421 22.8079 37.0719 22.8079C36.6048 22.8079 36.6071 22.8114 36.795 22.3932C36.9624 22.0203 36.978 22.0191 37.2561 22.3575ZM30.7442 22.751C30.9362 22.8518 31.0934 22.9632 31.0934 22.9988C31.0934 23.0343 30.7605 23.6674 30.3535 24.4056C29.7633 25.4762 29.6062 25.6875 29.5773 25.449C29.5575 25.2847 29.4869 24.9749 29.4206 24.7609C29.3126 24.4126 29.3516 24.2765 29.7906 23.4696C30.0605 22.9736 30.3068 22.5677 30.3381 22.5677C30.3692 22.5677 30.552 22.6502 30.7442 22.751ZM31.9757 23.4278C32.1416 23.5045 32.2773 23.5994 32.2773 23.6388C32.2773 23.7016 31.0018 26.0518 30.9155 26.1482C30.8971 26.1685 30.6838 26.1011 30.4413 25.9983C30.0217 25.8204 30.0086 25.7983 30.1712 25.5408C30.2652 25.3921 30.6038 24.8243 30.9236 24.2793C31.2435 23.7344 31.5433 23.2884 31.5897 23.2884C31.6362 23.2884 31.8099 23.3511 31.9757 23.4278ZM36.6373 23.6604C36.8356 23.9827 36.7821 24.0283 36.3171 23.934C35.9562 23.8607 35.9481 23.8469 36.139 23.6329C36.3926 23.3486 36.4472 23.3516 36.6373 23.6604ZM33.1119 24.0723C33.3039 24.173 33.4611 24.2852 33.4611 24.3215C33.4611 24.3579 33.2415 24.7754 32.9731 25.2494C32.1281 26.7418 32.2072 26.6562 31.8045 26.5139C31.6085 26.4444 31.4211 26.3433 31.3879 26.289C31.3363 26.2042 32.6276 23.889 32.7267 23.889C32.7464 23.889 32.9197 23.9715 33.1119 24.0723ZM35.7745 24.6177C35.8834 24.7966 35.7571 24.8937 35.5305 24.8056C35.4259 24.7648 35.3734 24.677 35.414 24.6105C35.5099 24.453 35.6762 24.4563 35.7745 24.6177ZM34.3854 24.7991L34.6519 24.9885L34.276 25.6699C33.4392 27.1866 33.4898 27.1297 33.101 26.9922C32.9081 26.924 32.7205 26.8191 32.6839 26.7591C32.5935 26.6107 33.7958 24.6097 33.9755 24.6097C34.0542 24.6097 34.2387 24.6949 34.3854 24.7991ZM28.4848 25.3252C28.5802 25.3864 28.6648 25.6262 28.6728 25.8578C28.6852 26.2237 28.6477 26.2838 28.3875 26.3152C28.0604 26.3546 27.9926 26.2936 29.3682 27.1996L29.7147 27.4278L29.6457 27.1598C29.6035 26.9962 29.6299 26.8926 29.7135 26.8938C29.7888 26.8949 30.8359 27.2667 32.0405 27.7203L34.2306 28.5448L34.2947 29.0938C34.341 29.4908 34.306 29.7136 34.169 29.8981C33.9834 30.1477 33.9634 30.1492 33.2592 29.9639C32.2438 29.697 32.1794 29.7207 32.6324 30.195C32.8743 30.4482 33.1484 30.6154 33.3216 30.6154C33.5815 30.6154 33.6019 30.6521 33.5339 30.997C33.4925 31.2069 33.4397 31.3979 33.4166 31.4214C33.3439 31.4952 24.5954 28.889 24.6447 28.8083C24.6704 28.7661 25.1394 28.5558 25.6869 28.3411L26.6825 27.9506L26.7433 27.211C26.8233 26.2367 27.0117 25.859 27.5933 25.5052C28.1237 25.1826 28.2293 25.1614 28.4848 25.3252ZM35.5386 25.4541L35.9273 25.6979L35.3928 26.6853C34.7859 27.8065 34.645 27.9958 34.645 27.6904C34.645 27.5645 34.5022 27.4294 34.2898 27.3543C34.0945 27.2852 33.9347 27.1982 33.9347 27.1609C33.9347 27.0463 35.0185 25.2102 35.0862 25.2102C35.1211 25.2102 35.3248 25.3199 35.5386 25.4541ZM18.9374 28.0408C23.2612 29.1462 27.1193 30.5153 30.8862 32.281C31.456 32.548 31.9221 32.732 31.9221 32.6897C31.9221 32.6474 31.8064 32.4879 31.6651 32.3353C31.5239 32.1827 31.4402 32.0254 31.4792 31.9857C31.5183 31.946 32.2412 32.0613 33.0854 32.2417L34.6205 32.5698L34.9788 33.4987L35.3372 34.4276L35.0887 35.2919C34.8175 36.2349 34.9176 36.1758 33.9836 35.945L33.6774 35.8693L33.9244 36.3606C34.2053 36.9193 34.2495 37.7884 34.0135 38.1157C33.8435 38.3516 33.0663 38.5241 32.12 38.5359L31.5486 38.5431L32.0905 37.9145C32.8516 37.0318 32.8217 36.9447 31.6968 36.7651C30.3626 36.5522 28.9278 36.0544 28.1999 35.5522C26.2751 34.2241 25.859 33.9651 25.2787 33.7341L24.6414 33.4804L25.0543 33.9398C25.2814 34.1924 25.7055 34.6558 25.9969 34.9696C26.2882 35.2835 26.4987 35.5402 26.4647 35.5402C26.4306 35.5402 25.4869 35.1125 24.3675 34.5896C22.4233 33.6815 21.4198 33.0654 20.3795 32.141L19.9059 31.7203L20.1867 31.4148C20.4286 31.1516 20.4565 31.0349 20.3881 30.5718C20.3133 30.0657 20.2509 29.9918 19.3203 29.3057L18.3317 28.5771L17.4747 28.9356C16.3375 29.4114 16.2951 29.4054 16.2951 28.7687C16.2951 28.2563 16.3092 28.237 16.8575 27.9976C17.5818 27.6814 17.5271 27.6803 18.9374 28.0408ZM15.0205 30.1114C15.1348 30.5615 15.0363 30.5685 16.5841 29.9999C17.1012 29.8099 17.5977 29.6545 17.6875 29.6545C17.9128 29.6545 18.8728 30.3383 19.0006 30.59C19.0582 30.703 19.1413 30.9984 19.1854 31.246L19.2656 31.6965H18.4534C17.6911 31.6965 17.5583 31.7406 16.2876 32.4143C15.5429 32.8092 14.8672 33.1335 14.7857 33.135C14.4536 33.1414 14.671 32.809 15.155 32.5704C15.5409 32.3802 15.6884 32.2293 15.7364 31.976C15.7718 31.7892 15.7832 31.6184 15.7618 31.5964C15.7405 31.5744 15.2808 31.648 14.7404 31.7598C13.3661 32.0442 10.9469 32.8461 9.96148 33.344C9.20618 33.7255 8.24488 34.4954 8.24488 34.7188C8.24488 34.7687 8.52451 34.6669 8.86641 34.4928C9.32646 34.2582 9.72625 34.1619 10.4054 34.1219C10.9101 34.0922 11.3229 34.0948 11.3229 34.1276C11.3229 34.1604 10.9749 34.3938 10.5494 34.6463C9.0112 35.5589 8.24488 36.7373 8.24488 38.1898C8.24488 38.9714 7.99746 39.1731 7.5599 38.748C7.29708 38.4926 7.10506 38.4292 6.50449 38.3994L5.77026 38.3629L6.1762 37.7023C6.65732 36.9193 6.66265 36.8894 6.33034 36.8398C5.94997 36.783 5.94393 36.5637 6.31803 36.3894L6.64667 36.2363L5.72918 35.7667C4.81808 35.3003 4.81169 35.2937 4.81169 34.8232V34.3495L6.3803 33.8383C7.87954 33.3496 8.07464 33.2459 10.7902 31.4922C13.6299 29.6584 13.6318 29.6574 14.2756 29.686C14.8968 29.7136 14.9232 29.7287 15.0205 30.1114ZM35.735 30.1881C36.3172 30.4349 36.4025 30.5875 36.4435 31.456C36.4725 32.071 36.4433 32.2363 36.3 32.2663C36.191 32.2891 36.0682 32.1646 35.9883 31.9498C35.9044 31.7242 35.6779 31.5031 35.3647 31.3409C34.8903 31.0954 34.8756 31.0706 34.952 30.6407C35.0791 29.9256 35.0946 29.9166 35.735 30.1881ZM24.1678 30.6588C27.3498 31.7643 28.4231 32.3637 29.5153 33.645L29.8906 34.0852L30.1808 33.7908C30.4786 33.4886 30.6259 33.5362 30.7617 33.9783C30.8037 34.1149 30.8525 34.091 30.9642 33.8789C31.0453 33.7252 31.0832 33.5244 31.0484 33.4325C30.904 33.0504 26.9803 31.297 24.9035 30.6863C23.3269 30.2228 22.863 30.2054 24.1678 30.6588ZM20.4941 33.3586C20.8976 33.5502 21.6291 34.0081 22.1196 34.3761C22.6101 34.7443 23.6065 35.434 24.3338 35.9089C25.0612 36.384 25.6385 36.7907 25.6167 36.8127C25.595 36.8348 25.0523 37.0745 24.4107 37.3454C23.664 37.6607 23.2165 37.7925 23.1672 37.7116C23.1147 37.6253 22.9612 37.6227 22.6827 37.7038C22.4586 37.769 22.1265 37.8224 21.9446 37.8224C21.646 37.8224 21.6269 37.7982 21.7468 37.5709C21.8967 37.2868 22.5674 36.9636 23.4871 36.7322C23.8289 36.6462 24.1086 36.5344 24.1086 36.4838C24.1086 36.1241 21.7241 36.2336 19.9855 36.6732C18.7191 36.9935 17.0055 37.653 17.0055 37.8203C17.0055 37.8728 17.0986 38.0296 17.2126 38.1687C17.4081 38.4071 17.4466 38.4115 17.8934 38.2472C18.4036 38.0596 19.8467 37.9977 19.8467 38.1634C19.8467 38.2836 19.5292 38.44 18.1919 38.9784C17.6399 39.2006 16.836 39.6288 16.4056 39.9299C15.6509 40.4578 15.5959 40.4761 14.864 40.4411L14.105 40.4049L14.6682 40.069C15.3973 39.6341 15.6091 39.2984 15.5624 38.6514L15.5256 38.1395L15.1788 38.6491C14.801 39.2043 14.0089 39.7442 13.5723 39.7442C13.1613 39.7442 12.2961 39.1828 12.0931 38.7846C11.9951 38.5922 11.9149 38.2971 11.9149 38.1287C11.9149 37.8993 11.8535 37.8224 11.6703 37.8224C10.9264 37.8224 10.7788 38.3639 11.2597 39.3275C11.4202 39.6493 11.5367 39.9276 11.5186 39.9461C11.5004 39.9645 11.0748 39.6699 10.5728 39.2914L9.66007 38.6031L9.7298 37.8824C9.76816 37.4861 9.87494 37.0435 9.96705 36.8992C10.482 36.0921 13.3609 34.5023 15.6596 33.7555C18.638 32.788 19.1957 32.7422 20.4941 33.3586ZM18.0117 33.8542C16.9697 34.1343 15.3855 34.7268 14.4602 35.1824L13.7498 35.5321L14.3418 35.4656C15.0581 35.3851 16.4728 35.0479 17.8342 34.6335C18.4365 34.4501 19.1849 34.3175 19.6986 34.3031C20.1706 34.2898 20.5569 34.2664 20.5569 34.251C20.5573 34.1506 19.3304 33.6195 19.1107 33.6249C18.962 33.6285 18.4675 33.7318 18.0117 33.8542Z" fill="#3F54A5"/>
</svg>
